<?xml version="1.0" encoding="UTF-8"?>
<svg id="Layer_2" xmlns="http://www.w3.org/2000/svg" viewBox="0 0 173.2 170.46">
  <defs>
    <style>
      .cls-1 {
        fill: #1c75bc;
      }

      .cls-2 {
        fill: #f15a29;
      }

      .cls-3 {
        fill: #fbb040;
      }
    </style>
  </defs>
  <g id="Layer_1-2" data-name="Layer_1">
    <g>
      <path class="cls-3" d="M86.6,147.73l-35.96,20.76c-4.54,2.62-10.13,2.62-14.67,0l-28.63-16.53c-4.54-2.62-7.34-7.46-7.34-12.71v-33.06c0-5.24,2.8-10.09,7.34-12.71l35.96-20.76v50l43.3,25Z"/>
      <path class="cls-2" d="M173.2,106.2v33.06c0,5.24-2.8,10.09-7.34,12.71l-28.63,16.53c-4.54,2.62-10.13,2.62-14.67,0l-35.96-20.76,43.3-25v-50l35.96,20.76c4.54,2.62,7.34,7.46,7.34,12.71Z"/>
      <path class="cls-1" d="M129.9,31.2v41.53l-43.3-25-43.3,25V31.2c0-5.24,2.8-10.09,7.34-12.71L79.26,1.97c4.54-2.62,10.13-2.62,14.67,0l28.63,16.53c4.54,2.62,7.34,7.46,7.34,12.71Z"/>
    </g>
  </g>
</svg>